<mxfile host="app.diagrams.net" agent="Mozilla/5.0 (Windows NT 10.0; Win64; x64) AppleWebKit/537.36 (KHTML, like Gecko) Chrome/128.0.0.0 Safari/537.36" version="24.7.8">
  <diagram name="PÃ¡gina-1" id="Q-kWJ7jOKRIE-JyE0Qq4">
    <mxGraphModel dx="2062" dy="1783" grid="1" gridSize="10" guides="1" tooltips="1" connect="1" arrows="1" fold="1" page="1" pageScale="1" pageWidth="827" pageHeight="1169" math="0" shadow="0">
      <root>
        <mxCell id="0" />
        <mxCell id="1" parent="0" />
        <mxCell id="xUf4JMuz1Iys4jUOcl8J-1" value="Usuario" style="swimlane;fontStyle=0;childLayout=stackLayout;horizontal=1;startSize=26;fillColor=#ffe6cc;horizontalStack=0;resizeParent=1;resizeParentMax=0;resizeLast=0;collapsible=1;marginBottom=0;whiteSpace=wrap;html=1;strokeColor=#d79b00;" parent="1" vertex="1">
          <mxGeometry x="50" y="20" width="140" height="130" as="geometry" />
        </mxCell>
        <mxCell id="xUf4JMuz1Iys4jUOcl8J-2" value="#UserId : Guid" style="text;strokeColor=none;fillColor=none;align=left;verticalAlign=top;spacingLeft=4;spacingRight=4;overflow=hidden;rotatable=0;points=[[0,0.5],[1,0.5]];portConstraint=eastwest;whiteSpace=wrap;html=1;" parent="xUf4JMuz1Iys4jUOcl8J-1" vertex="1">
          <mxGeometry y="26" width="140" height="26" as="geometry" />
        </mxCell>
        <mxCell id="xUf4JMuz1Iys4jUOcl8J-3" value="- Nome : String" style="text;strokeColor=none;fillColor=none;align=left;verticalAlign=top;spacingLeft=4;spacingRight=4;overflow=hidden;rotatable=0;points=[[0,0.5],[1,0.5]];portConstraint=eastwest;whiteSpace=wrap;html=1;" parent="xUf4JMuz1Iys4jUOcl8J-1" vertex="1">
          <mxGeometry y="52" width="140" height="26" as="geometry" />
        </mxCell>
        <mxCell id="xUf4JMuz1Iys4jUOcl8J-18" value="- Email : String" style="text;strokeColor=none;fillColor=none;align=left;verticalAlign=top;spacingLeft=4;spacingRight=4;overflow=hidden;rotatable=0;points=[[0,0.5],[1,0.5]];portConstraint=eastwest;whiteSpace=wrap;html=1;" parent="xUf4JMuz1Iys4jUOcl8J-1" vertex="1">
          <mxGeometry y="78" width="140" height="26" as="geometry" />
        </mxCell>
        <mxCell id="xUf4JMuz1Iys4jUOcl8J-19" value="- AdicionarEndereco()" style="text;strokeColor=none;fillColor=none;align=left;verticalAlign=top;spacingLeft=4;spacingRight=4;overflow=hidden;rotatable=0;points=[[0,0.5],[1,0.5]];portConstraint=eastwest;whiteSpace=wrap;html=1;" parent="xUf4JMuz1Iys4jUOcl8J-1" vertex="1">
          <mxGeometry y="104" width="140" height="26" as="geometry" />
        </mxCell>
        <mxCell id="xUf4JMuz1Iys4jUOcl8J-5" value="Restaurante" style="swimlane;fontStyle=0;childLayout=stackLayout;horizontal=1;startSize=26;fillColor=#d5e8d4;horizontalStack=0;resizeParent=1;resizeParentMax=0;resizeLast=0;collapsible=1;marginBottom=0;whiteSpace=wrap;html=1;strokeColor=#82b366;" parent="1" vertex="1">
          <mxGeometry x="50" y="292" width="140" height="158" as="geometry" />
        </mxCell>
        <mxCell id="xUf4JMuz1Iys4jUOcl8J-6" value="# RestauranteId : Guid" style="text;strokeColor=none;fillColor=none;align=left;verticalAlign=top;spacingLeft=4;spacingRight=4;overflow=hidden;rotatable=0;points=[[0,0.5],[1,0.5]];portConstraint=eastwest;whiteSpace=wrap;html=1;" parent="xUf4JMuz1Iys4jUOcl8J-5" vertex="1">
          <mxGeometry y="26" width="140" height="26" as="geometry" />
        </mxCell>
        <mxCell id="xUf4JMuz1Iys4jUOcl8J-51" value="#UserId : Guid" style="text;strokeColor=none;fillColor=none;align=left;verticalAlign=top;spacingLeft=4;spacingRight=4;overflow=hidden;rotatable=0;points=[[0,0.5],[1,0.5]];portConstraint=eastwest;whiteSpace=wrap;html=1;" parent="xUf4JMuz1Iys4jUOcl8J-5" vertex="1">
          <mxGeometry y="52" width="140" height="26" as="geometry" />
        </mxCell>
        <mxCell id="xUf4JMuz1Iys4jUOcl8J-39" value="# Cardapio : List&amp;lt;Cardapio&amp;gt;" style="text;strokeColor=none;fillColor=none;align=left;verticalAlign=top;spacingLeft=4;spacingRight=4;overflow=hidden;rotatable=0;points=[[0,0.5],[1,0.5]];portConstraint=eastwest;whiteSpace=wrap;html=1;" parent="xUf4JMuz1Iys4jUOcl8J-5" vertex="1">
          <mxGeometry y="78" width="140" height="38" as="geometry" />
        </mxCell>
        <mxCell id="xUf4JMuz1Iys4jUOcl8J-7" value="- CNPJ : Int" style="text;strokeColor=none;fillColor=none;align=left;verticalAlign=top;spacingLeft=4;spacingRight=4;overflow=hidden;rotatable=0;points=[[0,0.5],[1,0.5]];portConstraint=eastwest;whiteSpace=wrap;html=1;" parent="xUf4JMuz1Iys4jUOcl8J-5" vertex="1">
          <mxGeometry y="116" width="140" height="42" as="geometry" />
        </mxCell>
        <mxCell id="xUf4JMuz1Iys4jUOcl8J-9" value="Cliente" style="swimlane;fontStyle=0;childLayout=stackLayout;horizontal=1;startSize=26;fillColor=#dae8fc;horizontalStack=0;resizeParent=1;resizeParentMax=0;resizeLast=0;collapsible=1;marginBottom=0;whiteSpace=wrap;html=1;strokeColor=#6c8ebf;" parent="1" vertex="1">
          <mxGeometry x="460" y="-100" width="140" height="236" as="geometry" />
        </mxCell>
        <mxCell id="xUf4JMuz1Iys4jUOcl8J-10" value="# ClienteId : Guid" style="text;strokeColor=none;fillColor=none;align=left;verticalAlign=top;spacingLeft=4;spacingRight=4;overflow=hidden;rotatable=0;points=[[0,0.5],[1,0.5]];portConstraint=eastwest;whiteSpace=wrap;html=1;" parent="xUf4JMuz1Iys4jUOcl8J-9" vertex="1">
          <mxGeometry y="26" width="140" height="26" as="geometry" />
        </mxCell>
        <mxCell id="xUf4JMuz1Iys4jUOcl8J-50" value="#UserId : Guid" style="text;strokeColor=none;fillColor=none;align=left;verticalAlign=top;spacingLeft=4;spacingRight=4;overflow=hidden;rotatable=0;points=[[0,0.5],[1,0.5]];portConstraint=eastwest;whiteSpace=wrap;html=1;" parent="xUf4JMuz1Iys4jUOcl8J-9" vertex="1">
          <mxGeometry y="52" width="140" height="26" as="geometry" />
        </mxCell>
        <mxCell id="xUf4JMuz1Iys4jUOcl8J-11" value="- CPF : Int" style="text;strokeColor=none;fillColor=none;align=left;verticalAlign=top;spacingLeft=4;spacingRight=4;overflow=hidden;rotatable=0;points=[[0,0.5],[1,0.5]];portConstraint=eastwest;whiteSpace=wrap;html=1;" parent="xUf4JMuz1Iys4jUOcl8J-9" vertex="1">
          <mxGeometry y="78" width="140" height="26" as="geometry" />
        </mxCell>
        <mxCell id="xUf4JMuz1Iys4jUOcl8J-12" value="- DataNascimento : DateOnly" style="text;strokeColor=none;fillColor=none;align=left;verticalAlign=top;spacingLeft=4;spacingRight=4;overflow=hidden;rotatable=0;points=[[0,0.5],[1,0.5]];portConstraint=eastwest;whiteSpace=wrap;html=1;" parent="xUf4JMuz1Iys4jUOcl8J-9" vertex="1">
          <mxGeometry y="104" width="140" height="42" as="geometry" />
        </mxCell>
        <mxCell id="xUf4JMuz1Iys4jUOcl8J-41" value="- FazerPedido()" style="text;strokeColor=none;fillColor=none;align=left;verticalAlign=top;spacingLeft=4;spacingRight=4;overflow=hidden;rotatable=0;points=[[0,0.5],[1,0.5]];portConstraint=eastwest;whiteSpace=wrap;html=1;" parent="xUf4JMuz1Iys4jUOcl8J-9" vertex="1">
          <mxGeometry y="146" width="140" height="30" as="geometry" />
        </mxCell>
        <mxCell id="xUf4JMuz1Iys4jUOcl8J-42" value="- BuscarRestaurante()" style="text;strokeColor=none;fillColor=none;align=left;verticalAlign=top;spacingLeft=4;spacingRight=4;overflow=hidden;rotatable=0;points=[[0,0.5],[1,0.5]];portConstraint=eastwest;whiteSpace=wrap;html=1;" parent="xUf4JMuz1Iys4jUOcl8J-9" vertex="1">
          <mxGeometry y="176" width="140" height="30" as="geometry" />
        </mxCell>
        <mxCell id="xUf4JMuz1Iys4jUOcl8J-47" value="- CancelarPedido()" style="text;strokeColor=none;fillColor=none;align=left;verticalAlign=top;spacingLeft=4;spacingRight=4;overflow=hidden;rotatable=0;points=[[0,0.5],[1,0.5]];portConstraint=eastwest;whiteSpace=wrap;html=1;" parent="xUf4JMuz1Iys4jUOcl8J-9" vertex="1">
          <mxGeometry y="206" width="140" height="30" as="geometry" />
        </mxCell>
        <mxCell id="xUf4JMuz1Iys4jUOcl8J-13" value="Pedido" style="swimlane;fontStyle=0;childLayout=stackLayout;horizontal=1;startSize=26;fillColor=#e1d5e7;horizontalStack=0;resizeParent=1;resizeParentMax=0;resizeLast=0;collapsible=1;marginBottom=0;whiteSpace=wrap;html=1;strokeColor=#9673a6;" parent="1" vertex="1">
          <mxGeometry x="460" y="230" width="140" height="282" as="geometry" />
        </mxCell>
        <mxCell id="xUf4JMuz1Iys4jUOcl8J-14" value="# PedidoId : Guid" style="text;strokeColor=none;fillColor=none;align=left;verticalAlign=top;spacingLeft=4;spacingRight=4;overflow=hidden;rotatable=0;points=[[0,0.5],[1,0.5]];portConstraint=eastwest;whiteSpace=wrap;html=1;" parent="xUf4JMuz1Iys4jUOcl8J-13" vertex="1">
          <mxGeometry y="26" width="140" height="26" as="geometry" />
        </mxCell>
        <mxCell id="xUf4JMuz1Iys4jUOcl8J-55" value="# RestauranteId : Guid" style="text;strokeColor=none;fillColor=none;align=left;verticalAlign=top;spacingLeft=4;spacingRight=4;overflow=hidden;rotatable=0;points=[[0,0.5],[1,0.5]];portConstraint=eastwest;whiteSpace=wrap;html=1;" parent="xUf4JMuz1Iys4jUOcl8J-13" vertex="1">
          <mxGeometry y="52" width="140" height="26" as="geometry" />
        </mxCell>
        <mxCell id="xUf4JMuz1Iys4jUOcl8J-54" value="# ClienteId : Guid" style="text;strokeColor=none;fillColor=none;align=left;verticalAlign=top;spacingLeft=4;spacingRight=4;overflow=hidden;rotatable=0;points=[[0,0.5],[1,0.5]];portConstraint=eastwest;whiteSpace=wrap;html=1;" parent="xUf4JMuz1Iys4jUOcl8J-13" vertex="1">
          <mxGeometry y="78" width="140" height="26" as="geometry" />
        </mxCell>
        <mxCell id="xUf4JMuz1Iys4jUOcl8J-15" value="- ValorTotal : Float" style="text;strokeColor=none;fillColor=none;align=left;verticalAlign=top;spacingLeft=4;spacingRight=4;overflow=hidden;rotatable=0;points=[[0,0.5],[1,0.5]];portConstraint=eastwest;whiteSpace=wrap;html=1;" parent="xUf4JMuz1Iys4jUOcl8J-13" vertex="1">
          <mxGeometry y="104" width="140" height="26" as="geometry" />
        </mxCell>
        <mxCell id="xUf4JMuz1Iys4jUOcl8J-16" value="- NotaFiscal : String" style="text;strokeColor=none;fillColor=none;align=left;verticalAlign=top;spacingLeft=4;spacingRight=4;overflow=hidden;rotatable=0;points=[[0,0.5],[1,0.5]];portConstraint=eastwest;whiteSpace=wrap;html=1;" parent="xUf4JMuz1Iys4jUOcl8J-13" vertex="1">
          <mxGeometry y="130" width="140" height="26" as="geometry" />
        </mxCell>
        <mxCell id="xUf4JMuz1Iys4jUOcl8J-29" value="- Motorista : String&lt;div&gt;&lt;br&gt;&lt;/div&gt;" style="text;strokeColor=none;fillColor=none;align=left;verticalAlign=top;spacingLeft=4;spacingRight=4;overflow=hidden;rotatable=0;points=[[0,0.5],[1,0.5]];portConstraint=eastwest;whiteSpace=wrap;html=1;" parent="xUf4JMuz1Iys4jUOcl8J-13" vertex="1">
          <mxGeometry y="156" width="140" height="26" as="geometry" />
        </mxCell>
        <mxCell id="xUf4JMuz1Iys4jUOcl8J-30" value="- PrevisaoEntrega : DateTime" style="text;strokeColor=none;fillColor=none;align=left;verticalAlign=top;spacingLeft=4;spacingRight=4;overflow=hidden;rotatable=0;points=[[0,0.5],[1,0.5]];portConstraint=eastwest;whiteSpace=wrap;html=1;" parent="xUf4JMuz1Iys4jUOcl8J-13" vertex="1">
          <mxGeometry y="182" width="140" height="40" as="geometry" />
        </mxCell>
        <mxCell id="xUf4JMuz1Iys4jUOcl8J-34" value="- NomePrato : String&lt;div&gt;&lt;br&gt;&lt;/div&gt;" style="text;strokeColor=none;fillColor=none;align=left;verticalAlign=top;spacingLeft=4;spacingRight=4;overflow=hidden;rotatable=0;points=[[0,0.5],[1,0.5]];portConstraint=eastwest;whiteSpace=wrap;html=1;" parent="xUf4JMuz1Iys4jUOcl8J-13" vertex="1">
          <mxGeometry y="222" width="140" height="30" as="geometry" />
        </mxCell>
        <mxCell id="xUf4JMuz1Iys4jUOcl8J-49" value="- Descricao : String" style="text;strokeColor=none;fillColor=none;align=left;verticalAlign=top;spacingLeft=4;spacingRight=4;overflow=hidden;rotatable=0;points=[[0,0.5],[1,0.5]];portConstraint=eastwest;whiteSpace=wrap;html=1;" parent="xUf4JMuz1Iys4jUOcl8J-13" vertex="1">
          <mxGeometry y="252" width="140" height="30" as="geometry" />
        </mxCell>
        <mxCell id="xUf4JMuz1Iys4jUOcl8J-21" value="Endereco" style="swimlane;fontStyle=0;childLayout=stackLayout;horizontal=1;startSize=26;fillColor=#f8cecc;horizontalStack=0;resizeParent=1;resizeParentMax=0;resizeLast=0;collapsible=1;marginBottom=0;whiteSpace=wrap;html=1;strokeColor=#b85450;" parent="1" vertex="1">
          <mxGeometry x="-210" y="-8" width="140" height="208" as="geometry" />
        </mxCell>
        <mxCell id="xUf4JMuz1Iys4jUOcl8J-27" value="# EnderecoId : Guid" style="text;strokeColor=none;fillColor=none;align=left;verticalAlign=top;spacingLeft=4;spacingRight=4;overflow=hidden;rotatable=0;points=[[0,0.5],[1,0.5]];portConstraint=eastwest;whiteSpace=wrap;html=1;" parent="xUf4JMuz1Iys4jUOcl8J-21" vertex="1">
          <mxGeometry y="26" width="140" height="26" as="geometry" />
        </mxCell>
        <mxCell id="xUf4JMuz1Iys4jUOcl8J-53" value="#UserId : Guid" style="text;strokeColor=none;fillColor=none;align=left;verticalAlign=top;spacingLeft=4;spacingRight=4;overflow=hidden;rotatable=0;points=[[0,0.5],[1,0.5]];portConstraint=eastwest;whiteSpace=wrap;html=1;" parent="xUf4JMuz1Iys4jUOcl8J-21" vertex="1">
          <mxGeometry y="52" width="140" height="26" as="geometry" />
        </mxCell>
        <mxCell id="xUf4JMuz1Iys4jUOcl8J-22" value="- Rua : String&lt;div&gt;&lt;br&gt;&lt;/div&gt;" style="text;strokeColor=none;fillColor=none;align=left;verticalAlign=top;spacingLeft=4;spacingRight=4;overflow=hidden;rotatable=0;points=[[0,0.5],[1,0.5]];portConstraint=eastwest;whiteSpace=wrap;html=1;" parent="xUf4JMuz1Iys4jUOcl8J-21" vertex="1">
          <mxGeometry y="78" width="140" height="26" as="geometry" />
        </mxCell>
        <mxCell id="xUf4JMuz1Iys4jUOcl8J-23" value="- Bairro : String" style="text;strokeColor=none;fillColor=none;align=left;verticalAlign=top;spacingLeft=4;spacingRight=4;overflow=hidden;rotatable=0;points=[[0,0.5],[1,0.5]];portConstraint=eastwest;whiteSpace=wrap;html=1;" parent="xUf4JMuz1Iys4jUOcl8J-21" vertex="1">
          <mxGeometry y="104" width="140" height="26" as="geometry" />
        </mxCell>
        <mxCell id="xUf4JMuz1Iys4jUOcl8J-26" value="- Cidade : String" style="text;strokeColor=none;fillColor=none;align=left;verticalAlign=top;spacingLeft=4;spacingRight=4;overflow=hidden;rotatable=0;points=[[0,0.5],[1,0.5]];portConstraint=eastwest;whiteSpace=wrap;html=1;" parent="xUf4JMuz1Iys4jUOcl8J-21" vertex="1">
          <mxGeometry y="130" width="140" height="26" as="geometry" />
        </mxCell>
        <mxCell id="xUf4JMuz1Iys4jUOcl8J-24" value="- Estado : String" style="text;strokeColor=none;fillColor=none;align=left;verticalAlign=top;spacingLeft=4;spacingRight=4;overflow=hidden;rotatable=0;points=[[0,0.5],[1,0.5]];portConstraint=eastwest;whiteSpace=wrap;html=1;" parent="xUf4JMuz1Iys4jUOcl8J-21" vertex="1">
          <mxGeometry y="156" width="140" height="26" as="geometry" />
        </mxCell>
        <mxCell id="xUf4JMuz1Iys4jUOcl8J-25" value="- Numero : Int" style="text;strokeColor=none;fillColor=none;align=left;verticalAlign=top;spacingLeft=4;spacingRight=4;overflow=hidden;rotatable=0;points=[[0,0.5],[1,0.5]];portConstraint=eastwest;whiteSpace=wrap;html=1;" parent="xUf4JMuz1Iys4jUOcl8J-21" vertex="1">
          <mxGeometry y="182" width="140" height="26" as="geometry" />
        </mxCell>
        <mxCell id="xUf4JMuz1Iys4jUOcl8J-31" value="" style="html=1;verticalAlign=bottom;endArrow=block;curved=0;rounded=0;entryX=0.5;entryY=0;entryDx=0;entryDy=0;exitX=0;exitY=0.5;exitDx=0;exitDy=0;endFill=0;" parent="1" source="xUf4JMuz1Iys4jUOcl8J-50" target="xUf4JMuz1Iys4jUOcl8J-1" edge="1">
          <mxGeometry x="-0.0008" width="80" relative="1" as="geometry">
            <mxPoint x="430" y="-50" as="sourcePoint" />
            <mxPoint x="90" as="targetPoint" />
            <Array as="points">
              <mxPoint x="120" y="-40" />
            </Array>
            <mxPoint as="offset" />
          </mxGeometry>
        </mxCell>
        <mxCell id="xUf4JMuz1Iys4jUOcl8J-32" value="" style="html=1;verticalAlign=bottom;endArrow=block;curved=0;rounded=0;entryX=0.511;entryY=0.934;entryDx=0;entryDy=0;entryPerimeter=0;exitX=0.5;exitY=0;exitDx=0;exitDy=0;endFill=0;" parent="1" source="xUf4JMuz1Iys4jUOcl8J-5" target="xUf4JMuz1Iys4jUOcl8J-19" edge="1">
          <mxGeometry width="80" relative="1" as="geometry">
            <mxPoint x="210" y="250" as="sourcePoint" />
            <mxPoint x="450" y="270" as="targetPoint" />
          </mxGeometry>
        </mxCell>
        <mxCell id="5S0r3ZVGpT86sg6hHDDX-2" value="" style="endArrow=diamondThin;endFill=1;endSize=24;html=1;rounded=0;entryX=1;entryY=0.5;entryDx=0;entryDy=0;exitX=0;exitY=0.5;exitDx=0;exitDy=0;" edge="1" parent="1" source="xUf4JMuz1Iys4jUOcl8J-3" target="xUf4JMuz1Iys4jUOcl8J-22">
          <mxGeometry width="160" relative="1" as="geometry">
            <mxPoint x="120" y="120" as="sourcePoint" />
            <mxPoint x="280" y="120" as="targetPoint" />
          </mxGeometry>
        </mxCell>
        <mxCell id="5S0r3ZVGpT86sg6hHDDX-3" value="" style="endArrow=diamondThin;endFill=1;endSize=24;html=1;rounded=0;exitX=0.467;exitY=1.087;exitDx=0;exitDy=0;exitPerimeter=0;" edge="1" parent="1" source="xUf4JMuz1Iys4jUOcl8J-47" target="xUf4JMuz1Iys4jUOcl8J-13">
          <mxGeometry width="160" relative="1" as="geometry">
            <mxPoint x="414" y="122" as="sourcePoint" />
            <mxPoint x="294" y="120" as="targetPoint" />
          </mxGeometry>
        </mxCell>
        <mxCell id="5S0r3ZVGpT86sg6hHDDX-4" value="" style="endArrow=diamondThin;endFill=1;endSize=24;html=1;rounded=0;exitX=1;exitY=0.5;exitDx=0;exitDy=0;" edge="1" parent="1" source="xUf4JMuz1Iys4jUOcl8J-51" target="xUf4JMuz1Iys4jUOcl8J-13">
          <mxGeometry width="160" relative="1" as="geometry">
            <mxPoint x="315" y="211" as="sourcePoint" />
            <mxPoint x="310" y="292" as="targetPoint" />
          </mxGeometry>
        </mxCell>
      </root>
    </mxGraphModel>
  </diagram>
</mxfile>
